<?xml version="1.0" encoding="UTF-8" standalone="no"?>
<!-- Created with Inkscape (http://www.inkscape.org/) -->

<svg
   xmlns:dc="http://purl.org/dc/elements/1.1/"
   xmlns:cc="http://creativecommons.org/ns#"
   xmlns:rdf="http://www.w3.org/1999/02/22-rdf-syntax-ns#"
   xmlns:svg="http://www.w3.org/2000/svg"
   xmlns="http://www.w3.org/2000/svg"
   xmlns:sodipodi="http://sodipodi.sourceforge.net/DTD/sodipodi-0.dtd"
   xmlns:inkscape="http://www.inkscape.org/namespaces/inkscape"
   version="1.2"
   width="744.09448"
   height="1052.3622"
   id="svg2"
   inkscape:version="0.48.5 r10040"
   sodipodi:docname="rad-logo.svg">
  <sodipodi:namedview
     pagecolor="#ffffff"
     bordercolor="#666666"
     borderopacity="1"
     objecttolerance="10"
     gridtolerance="10"
     guidetolerance="10"
     inkscape:pageopacity="0"
     inkscape:pageshadow="2"
     inkscape:window-width="1920"
     inkscape:window-height="1021"
     id="namedview3051"
     showgrid="false"
     inkscape:zoom="0.8029555"
     inkscape:cx="372.04724"
     inkscape:cy="526.18109"
     inkscape:window-x="-3"
     inkscape:window-y="-3"
     inkscape:window-maximized="1"
     inkscape:current-layer="svg2" />
  <defs
     id="defs4" />
  <metadata
     id="metadata7">
    <rdf:RDF>
      <cc:Work
         rdf:about="">
        <dc:format>image/svg+xml</dc:format>
        <dc:type
           rdf:resource="http://purl.org/dc/dcmitype/StillImage" />
        <dc:title />
      </cc:Work>
    </rdf:RDF>
  </metadata>
  <g
     id="layer1">
    <g
       transform="matrix(7.5275001,0,0,9.8165611,-1514.2038,-3738.9937)"
       id="flowRoot2985"
       style="font-size:40px;font-style:oblique;font-variant:normal;font-weight:bold;font-stretch:normal;text-align:start;line-height:125%;letter-spacing:0px;word-spacing:0px;writing-mode:lr-tb;text-anchor:start;fill:#ff0000;fill-opacity:1;stroke:none;font-family:Lao UI;-inkscape-font-specification:Lao UI Bold Oblique">
      <path
         d="m 265.36328,452.09535 -6.875,0 0.12573,-6.23047 -9.96093,0 -4.09058,6.23047 -6.83594,0 19.71314,-28.00782 7.48047,0 z m -6.54907,-11.07422 0.19165,-9.41406 c 0.0179,-0.70311 0.14687,-1.54295 0.38696,-2.51954 l -0.15625,0 c -0.34344,0.82034 -0.78249,1.63414 -1.31714,2.44141 l -6.27319,9.49219 z m -20.67749,11.07422 -7.2461,0 -1.90673,-7.20703 c -0.13918,-0.54687 -0.28546,-1.03515 -0.43885,-1.46485 -0.15341,-0.42968 -0.33123,-0.79751 -0.53344,-1.10351 -0.20225,-0.30598 -0.44171,-0.54036 -0.71839,-0.70313 -0.27671,-0.16275 -0.61036,-0.24413 -1.00097,-0.24414 l -1.69922,0 -3.6438,10.72266 -6.3086,0 9.51783,-28.00782 10,0 c 6.79684,3e-5 9.33265,2.53909 7.60742,7.61719 -0.33206,0.97658 -0.7884,1.87828 -1.36902,2.70508 -0.58068,0.82684 -1.25715,1.57228 -2.02942,2.23633 -0.77232,0.66408 -1.62783,1.23699 -2.56653,1.71875 -0.93874,0.48178 -1.92975,0.85939 -2.97302,1.13281 l -0.0268,0.0781 c 0.3727,0.13022 0.70452,0.3418 0.99548,0.63476 0.29091,0.29298 0.55234,0.63478 0.7843,1.02539 0.23191,0.39064 0.4376,0.81056 0.61707,1.25977 0.17942,0.44923 0.33302,0.88868 0.46081,1.31836 z m -9.2749,-23.28125 -2.64893,7.79297 2.73438,0 c 1.35414,10e-6 2.57403,-0.39061 3.65966,-1.17188 1.1035,-0.79425 1.85423,-1.77732 2.2522,-2.94922 0.8325,-2.44789 -0.21609,-3.67185 -3.14575,-3.67187 z"
         id="path3007" />
    </g>
    <g
       transform="matrix(0.92565279,0,0,1,-18.926258,-26.263966)"
       id="g3063">
      <path
         d="m 550.01757,723.28723 c -3.56776,-3.56776 -3.72441,-6.139 -0.59563,-9.77643 2.2323,-2.59519 3.02134,-2.78704 14.89975,-3.62269 16.12085,-1.13411 29.22234,-3.23752 40.65855,-6.52762 48.54892,-13.96714 83.70138,-46.76184 95.35688,-88.96107 2.44513,-8.85268 2.72263,-11.51485 2.66229,-25.54018 -0.0579,-13.44948 -0.4298,-17.01058 -2.63766,-25.25381 -8.69129,-32.44959 -31.85752,-59.72374 -65.61347,-77.24826 -19.86957,-10.31536 -40.51584,-15.85003 -67.36515,-18.05865 -14.984,-1.23259 -15.62787,-1.3782 -17.93021,-4.05483 -3.02533,-3.51715 -3.01548,-5.86225 0.0396,-9.41394 2.22125,-2.58236 3.12577,-2.85403 10.63832,-3.19519 15.37348,-0.69815 39.80273,3.30521 59.15993,9.69488 13.64375,4.50369 34.47333,14.89479 45.96194,22.92869 11.06562,7.73811 29.49831,26.14399 36.23828,36.18556 25.80009,38.43842 29.1971,80.31682 9.76947,120.43841 -12.70971,26.24787 -38.64439,51.1275 -68.73618,65.9399 -25.52564,12.56476 -53.79753,19.41799 -80.1058,19.41799 -9.09578,0 -9.55822,-0.11012 -12.40087,-2.95276 z"
         id="path3051"
         style="fill:#000000;fill-opacity:1" />
      <path
         d="m 554.42291,700.2778 c -2.4929,-0.48252 -7.35809,-5.73214 -7.35809,-7.93949 0,-0.78198 1.26401,-2.83646 2.80891,-4.56551 2.74464,-3.07178 3.09407,-3.16497 15.27017,-4.07209 6.85369,-0.51061 15.93111,-1.63786 20.17206,-2.50501 36.33474,-7.42937 66.55661,-29.83543 79.88162,-59.2231 8.29431,-18.2927 9.26422,-39.82165 2.67187,-59.30696 -7.4156,-21.91864 -26.91581,-42.99277 -50.94234,-55.05403 -15.90271,-7.98313 -39.19334,-13.70071 -55.84979,-13.71048 -10.51306,-0.006 -16.5255,-5.60689 -12.54336,-11.6844 2.84902,-4.34816 5.00979,-4.80281 19.69049,-4.14309 69.9161,3.1419 126.74057,55.53743 123.98459,114.32114 -1.21138,25.83831 -11.11911,47.4046 -30.91856,67.30087 -23.32043,23.43447 -53.47355,36.85181 -90.48707,40.26437 -11.3643,1.04776 -12.4957,1.0697 -16.3805,0.31778 z"
         id="path3053"
         style="fill:#000000;fill-opacity:1" />
      <path
         d="m 552.47621,673.72056 c -2.64319,-1.06666 -5.41139,-4.84294 -5.41139,-7.38204 0,-1.03029 1.26747,-3.14071 2.81659,-4.68984 2.5669,-2.5669 3.70868,-2.88277 12.87945,-3.56312 18.58171,-1.37851 35.72312,-7.0739 48.29342,-16.04592 13.0311,-9.30091 22.51883,-21.49147 27.12281,-34.84943 3.07694,-8.92744 3.30006,-27.02256 0.43777,-35.50356 -5.5784,-16.52885 -19.45024,-32.38592 -35.48657,-40.56513 -14.06747,-7.175 -24.71076,-10.12111 -41.33842,-11.44263 -8.87267,-0.70517 -10.96103,-1.492 -13.25591,-4.99444 -3.8402,-5.86088 2.04187,-11.67793 11.815,-11.6844 7.91141,-0.005 27.17837,3.44959 35.89825,6.43704 20.95449,7.17905 39.08527,19.99546 49.99186,35.33859 36.79797,51.76648 2.14805,116.00361 -69.25453,128.39025 -9.7361,1.68898 -21.06226,1.9453 -24.50833,0.55463 l 0,0 z"
         id="path3055"
         style="fill:#000000;fill-opacity:1" />
      <path
         d="m 550.79629,646.41158 c -7.45838,-5.86675 -2.08862,-14.11578 9.18876,-14.11578 6.65422,0 19.39767,-3.36471 25.74075,-6.79645 8.25725,-4.46735 16.41043,-12.67456 20.16252,-20.29614 3.02867,-6.15209 3.30088,-7.49994 3.30088,-16.34397 0,-8.84403 -0.27221,-10.19188 -3.30088,-16.34397 -4.05758,-8.24213 -12.61297,-16.49026 -21.63011,-20.8533 -7.57161,-3.6636 -12.52895,-4.93449 -24.03928,-6.16281 -7.40546,-0.79028 -8.87467,-1.27491 -10.85914,-3.58199 -3.09598,-3.59929 -2.88817,-6.15822 0.79958,-9.84597 l 3.09456,-3.09456 10.36938,0.52923 c 8.26018,0.42157 12.45005,1.2416 20.59839,4.03144 13.06109,4.47188 19.91734,8.61741 28.91613,17.48373 17.31687,17.06197 21.41018,39.4029 11.10222,60.59489 -10.42249,21.42744 -36.72347,36.76452 -63.1494,36.82478 -6.21339,0.0141 -8.19274,-0.37598 -10.29436,-2.02913 l 0,0 z"
         id="path3057"
         style="fill:#000000;fill-opacity:1" />
      <path
         d="m 551.4916,621.27646 c -3.87852,-2.36504 -5.11961,-6.46063 -2.95764,-9.76021 2.1075,-3.21645 4.2606,-4.2315 10.7305,-5.05874 11.92536,-1.52476 19.11964,-8.22566 19.11131,-17.80064 -0.008,-8.90585 -6.88291,-15.14041 -18.68404,-16.94311 -5.81463,-0.88823 -7.56467,-1.61765 -9.84899,-4.1051 -3.50946,-3.82155 -3.4841,-5.20159 0.17072,-9.2906 2.82546,-3.16111 3.23831,-3.29197 9.88236,-3.13229 13.10162,0.31487 26.37686,7.08165 33.01018,16.82626 13.29775,19.53492 1.87675,42.80911 -24.34083,49.60276 -8.11417,2.10259 -13.23708,2.00108 -17.07357,-0.33833 z"
         id="path3059"
         style="fill:#000000;fill-opacity:1" />
      <path
         d="m 550.01757,593.98771 c -3.73485,-3.73486 -3.73485,-6.52208 0,-10.25693 3.95177,-3.95177 9.6845,-4.08861 14.14234,-0.33758 6.53263,5.49685 2.06988,13.54726 -7.50994,13.54726 -2.7201,0 -4.44963,-0.76998 -6.6324,-2.95275 z"
         id="path3061"
         style="fill:#000000;fill-opacity:1" />
    </g>
  </g>
  <path
     style="fill:#aa0000;fill-opacity:1"
     d="m 103.01748,695.86671 c 0.35334,-1.1987 16.09792,-61.58498 34.98794,-134.19175 18.89003,-72.60676 34.64871,-132.99305 35.01929,-134.19174 0.62526,-2.02253 3.8836,-2.17945 45.25423,-2.17945 24.51926,0 47.33784,0.52293 50.70797,1.16206 12.48326,2.3674 20.62779,6.36837 27.8352,13.67392 9.40056,9.52856 11.89121,16.60171 11.65963,33.11188 -0.57163,40.75262 -26.54078,81.73316 -61.97529,97.79993 -8.62295,3.90983 -9.72888,5.29308 -5.87918,7.35338 3.58627,1.91931 9.78685,12.40592 13.37892,22.6268 1.78096,5.06758 7.61929,28.18062 12.97406,51.36229 5.35477,23.18168 10.00993,42.4225 10.34482,42.75737 0.33487,0.33488 4.00272,-5.74207 8.15079,-13.50432 4.14806,-7.76226 36.8989,-68.47487 72.77966,-134.9169 l 65.23774,-120.80371 28.00187,-0.33422 28.00188,-0.33422 0.82857,75.05816 c 0.45572,41.28199 1.19658,102.65932 1.64636,136.39407 l 0.81778,61.3359 -25.10804,0 -25.10805,0 0,-30.51228 0,-30.51227 -37.68514,0 -37.68512,0 -15.24793,30.52608 -15.24792,30.52609 -51.29286,-0.32516 -51.29284,-0.32516 -7.66492,-37.98467 c -12.88778,-63.86732 -14.14606,-66.4708 -31.77843,-65.75201 l -9.04113,0.36856 -12.67344,48.57056 c -6.97039,26.71381 -13.05937,50.11174 -13.53107,51.99541 l -0.85763,3.42485 -23.10008,0 c -21.41455,0 -23.0532,-0.15903 -22.45764,-2.17945 z m 332.11849,-135.1258 c 0.0738,-31.17874 1.79891,-76.94612 3.16857,-84.06443 1.32266,-6.87411 -1.48798,-4.52638 -4.47289,3.7362 -1.54656,4.28106 -14.54652,30.90146 -28.8888,59.15645 l -26.07686,51.37271 28.09921,0 28.09923,0 0.0715,-30.20093 5e-5,0 z M 226.46009,543.34843 c 17.08383,-9.04034 27.84738,-26.77662 28.93516,-47.67961 0.53303,-10.24303 0.33018,-11.58409 -2.3547,-15.56749 -1.61588,-2.3974 -5.45539,-5.63326 -8.53222,-7.19081 -5.07002,-2.56653 -7.0522,-2.79994 -21.15273,-2.49079 l -15.55848,0.3411 -9.62693,36.73928 c -5.2948,20.2066 -9.64218,37.49609 -9.66084,38.42108 -0.0272,1.35053 3.0939,1.58733 15.84491,1.20212 14.25595,-0.43068 16.51527,-0.81649 22.10583,-3.77488 l 0,0 z"
     id="path3056"
     inkscape:connector-curvature="0" />
  <path
     style="fill:#d40000;fill-opacity:1"
     d="m 112.81743,697.12144 c -4.96603,-0.23639 -9.02862,-0.82557 -9.02798,-1.30929 0.004,-2.97035 69.65246,-267.18162 70.71047,-268.23963 1.94733,-1.94732 89.13896,-1.66104 97.99909,0.32177 16.05553,3.59307 29.75404,15.52404 33.79886,29.43774 1.61704,5.5624 1.88482,9.69065 1.23159,18.98615 -1.40658,20.01532 -6.67822,36.57515 -16.96392,53.28886 -10.92453,17.75177 -23.49019,29.55399 -42.62231,40.03272 -5.30852,2.9075 -9.65184,5.59344 -9.65184,5.96877 0,0.37532 1.77727,2.70661 3.94949,5.18063 8.59871,9.79338 13.42007,25.25461 30.3512,97.33061 1.8504,7.87715 3.78433,15.10404 4.29762,16.05976 1.24689,2.32162 2.17641,0.67078 59.53086,-105.72849 26.76935,-49.66028 57.30437,-106.26367 67.8556,-125.7853 l 19.18408,-35.49387 27.28522,-0.74485 c 15.00689,-0.40966 27.46615,-0.60237 27.68725,-0.42824 0.22111,0.17412 0.88968,41.42066 1.4857,91.65897 0.59604,50.23831 1.42212,111.37773 1.83576,135.86539 l 0.75207,44.52302 -24.9663,0 -24.96631,0 0,-30.51228 0,-30.51227 -37.98797,0 -37.98797,0 -15.11866,30.26729 -15.11864,30.26729 -50.57285,-0.52037 c -27.81507,-0.28622 -50.76745,-0.6975 -51.00531,-0.91397 -0.23785,-0.21647 -3.40337,-14.86355 -7.0345,-32.54906 -11.19865,-54.54348 -13.51996,-62.3833 -19.97454,-67.46045 -2.81758,-2.21633 -5.06686,-2.6797 -13.00742,-2.6797 l -9.60075,0 -13.58253,52.30641 -13.58253,52.3064 -13.07669,-0.2471 c -7.19218,-0.13591 -17.13981,-0.44051 -22.10584,-0.67691 z M 435.51151,560.11821 c 0.39989,-16.95299 1.28648,-43.40364 1.97019,-58.77923 1.11457,-25.0649 0.88813,-32.57371 -0.83642,-27.7371 -0.31292,0.87761 -13.40629,27.39745 -29.09638,58.93299 -15.69009,31.53554 -28.52742,57.57801 -28.52742,57.87216 0,0.29415 12.54666,0.53481 27.88147,0.53481 l 27.88147,0 0.72709,-30.82363 0,0 z M 228.83067,542.37128 c 16.93731,-10.18444 26.8963,-28.67831 26.8963,-49.94645 0,-8.59056 -0.35648,-10.06525 -3.27015,-13.52796 -6.16571,-7.32752 -10.91433,-8.75874 -29.06061,-8.75874 -8.93189,0 -16.2398,0.14739 -16.2398,0.32753 0,0.18013 -4.2018,16.5727 -9.33732,36.42792 -5.13553,19.85522 -9.33875,37.13614 -9.3405,38.40204 -0.003,2.14501 1.12327,2.27213 16.54992,1.8681 16.37614,-0.42891 16.63056,-0.48014 23.80216,-4.79244 z"
     id="path3058"
     inkscape:connector-curvature="0" />
</svg>
